<?xml version="1.0" encoding="UTF-8" standalone="no"?>
<svg
   xmlns:dc="http://purl.org/dc/elements/1.1/"
   xmlns:cc="http://creativecommons.org/ns#"
   xmlns:rdf="http://www.w3.org/1999/02/22-rdf-syntax-ns#"
   xmlns:svg="http://www.w3.org/2000/svg"
   xmlns="http://www.w3.org/2000/svg"
   xmlns:sodipodi="http://sodipodi.sourceforge.net/DTD/sodipodi-0.dtd"
   xmlns:inkscape="http://www.inkscape.org/namespaces/inkscape"
   viewBox="0 0 514 514"
   height="514"
   width="514"
   id="svg869"
   version="1.1"
   sodipodi:docname="favicon.svg"
   inkscape:version="0.92.5 (2060ec1f9f, 2020-04-08)">
  <sodipodi:namedview
     pagecolor="#ffffff"
     bordercolor="#666666"
     borderopacity="1"
     objecttolerance="10"
     gridtolerance="10"
     guidetolerance="10"
     inkscape:pageopacity="0"
     inkscape:pageshadow="2"
     inkscape:window-width="1920"
     inkscape:window-height="996"
     id="namedview6"
     showgrid="false"
     fit-margin-top="1"
     fit-margin-right="1"
     fit-margin-bottom="1"
     fit-margin-left="1"
     inkscape:zoom="1.18"
     inkscape:cx="246.70043"
     inkscape:cy="256.48194"
     inkscape:window-x="0"
     inkscape:window-y="28"
     inkscape:window-maximized="1"
     inkscape:current-layer="svg869"
     inkscape:pagecheckerboard="true" />
  <defs
     id="defs873" />
  <rect
     style="opacity:1;fill:#00449e;fill-opacity:1;stroke:none;stroke-width:2.68515563;stroke-opacity:1"
     id="rect837"
     width="512"
     height="512"
     x="1"
     y="1" />
  <path
     id="path881"
     d="m 104.69426,242.3474 c -10.727939,4.11669 -25.67993,-1.21876 -25.67993,-9.16361 0,-6.86671 10.11021,-7.50292 21.9484,-1.38115 8.97347,4.64036 10.18636,8.06781 3.73153,10.54476 z m 6.47411,35.6166 c -0.64832,4.52972 -3.09749,5.71983 -13.067668,6.34996 -13.758119,0.86952 -24.539621,-4.80167 -24.539621,-12.90817 0,-9.20192 13.439271,-10.92168 28.653249,-3.66666 7.14818,3.40875 9.53887,6.13875 8.95404,10.22487 z m -9.08536,39.69824 c -13.516815,5.13909 -25.795304,1.8237 -25.795304,-6.96514 0,-7.17165 23.970344,-12.30223 32.435154,-6.94234 5.30852,3.36133 1.80668,10.69611 -6.63985,13.90748 z m 6.56667,23.56616 c -3.13329,3.77539 -16.438577,5.04055 -19.614069,1.86506 -3.285555,-3.28555 4.177453,-9.1124 11.671139,-9.1124 9.17987,0 11.8988,2.48082 7.94293,7.24734 z m 216.65915,157.17035 c 9.76516,11.42865 15.10831,15.5891 19.25957,14.99644 11.17286,-1.59513 7.65317,-11.03926 -13.508,-36.24483 -11.32119,-13.48493 -26.2517,-31.88965 -33.17888,-40.89937 -16.0641,-20.89341 -28.6569,-31.64392 -39.70496,-33.89628 -5.53968,-1.12936 -9.94216,-4.26381 -12.00361,-8.54627 -6.00033,-12.46507 -9.43485,-44.08268 -7.55026,-69.50633 1.77183,-23.90238 1.60532,-24.94133 -5.31526,-33.16598 -3.92941,-4.66983 -13.72424,-12.20404 -21.76629,-16.7427 -12.73349,-7.18637 -16.51327,-8.06685 -29.26671,-6.81757 -11.15652,1.09286 -15.94373,0.36379 -20.09805,-3.06085 -4.53307,-3.73686 -4.76683,-4.772 -1.38533,-6.13455 2.23736,-0.90151 11.52372,-5.52533 20.63635,-10.27516 l 16.56841,-8.63604 28.4429,6.63302 c 15.6436,3.64817 31.04335,7.63626 34.22168,8.86243 9.01006,3.47601 30.12005,37.70253 37.99364,61.60063 l 7.12802,21.63528 35.89885,23.55705 c 60.37461,39.61824 117.61456,67.25149 131.88604,63.66958 9.5584,-2.39902 8.65594,-14.49223 -1.23701,-16.57665 -25.87436,-5.45167 -67.35925,-27.06579 -128.83301,-67.12353 -22.72511,-14.80821 -23.27444,-15.42552 -28.21694,-31.70898 -9.40699,-30.99196 -39.8331,-74.09025 -52.43275,-74.27048 -2.89851,-0.0415 -10.72046,-6.50917 -17.5088,-14.47741 -6.7484,-7.92137 -18.16102,-19.23722 -25.36138,-25.14634 -7.20037,-5.90912 -14.79628,-13.91651 -16.87982,-17.7942 -7.78817,-14.49463 -17.74454,-97.520101 -17.74454,-147.970451 0,-13.85086 -1.25619,-23.7386497 -3.27195,-25.7544197 -4.59648,-4.59648004 -12.95189,-4.07213004 -14.87267,0.93333 -2.29087,5.9699197 3.99838,102.3541907 8.75226,134.1305307 4.89832,32.7418 10.6334,50.66046 18.43626,57.60224 3.27389,2.9126 11.80579,10.50368 18.95977,16.86907 7.15398,6.36539 12.45963,12.12104 11.79033,12.79033 -0.66929,0.66929 -7.91763,-0.73106 -16.10742,-3.1119 l -14.89052,-4.32879 -15.17891,9.14026 c -8.3484,5.02715 -20.72165,10.69214 -27.49612,12.58887 -14.86035,4.16064 -17.47736,10.01833 -10.62872,23.7904 7.89809,15.88248 16.99524,20.90661 38.36483,21.18808 15.03806,0.19795 20.48246,1.57291 29.70598,7.50152 l 11.2933,7.25898 1.13423,41.73295 c 0.85335,31.39817 2.28567,44.36873 5.78389,52.37644 5.36579,12.28279 4.64797,14.22134 -3.62625,9.79311 -6.86244,-3.67266 -18.6406,-27.74384 -20.95938,-42.83497 -0.87223,-5.67662 -2.79283,-11.85485 -4.268,-13.7294 -3.64502,-4.63186 -12.7458,-4.31063 -14.59766,0.51525 -2.35377,6.13381 4.04857,32.62709 11.37359,47.06462 3.65204,7.19815 6.64522,13.39427 6.65149,13.76918 0.006,0.37491 -2.86587,0.68166 -6.38255,0.68166 -11.76975,0 -20.10299,-14.12997 -24.78657,-42.02844 -2.85287,-16.99355 -4.00686,-19.43145 -9.58111,-20.24083 -11.77051,-1.70907 -12.82351,10.05997 -3.82888,42.79432 4.35015,15.83163 4.02088,17.75 -2.60986,15.20554 -6.02938,-2.31368 -15.11289,-22.05065 -17.21854,-37.41302 -1.89681,-13.83874 -6.06785,-19.33406 -12.73346,-16.77621 -6.03314,2.31512 -7.1099,6.8138 -4.73689,19.79076 2.7562,15.07251 -1.22394,14.48817 -8.80643,-1.29291 -5.04294,-10.49565 -5.41786,-12.9269 -2.16445,-14.03592 2.16426,-0.73775 6.84163,-4.248 10.39417,-7.80055 4.81079,-4.81077 5.9413,-8.01319 4.42992,-12.54866 -1.1161,-3.34922 -1.73613,-7.92998 -1.37788,-10.17945 0.35825,-2.24946 1.19951,-10.83833 1.86948,-19.08637 0.66996,-8.24804 1.9747,-19.71033 2.89941,-25.4718 1.31087,-8.16735 0.41551,-12.18744 -4.06378,-18.24599 -5.44749,-7.36814 -5.51364,-8.17392 -1.27691,-15.55598 3.93218,-6.85143 4.00595,-8.75117 0.61497,-15.83682 -2.11925,-4.42831 -8.29031,-10.43472 -13.71347,-13.34757 -9.228717,-4.95687 -9.969378,-6.33988 -11.563572,-21.59231 C 94.969024,176.61476 79.791432,131.13737 63.951682,97.446359 54.543867,77.436009 50.913857,72.225079 46.382197,72.225079 c -3.14147,0 -6.39687,1.78538 -7.23423,3.96751 -0.83736,2.18212 5.20245,20.28009 13.42181,40.217711 18.294823,44.37754 23.606811,60.59472 26.265564,80.18712 1.923159,14.17183 1.655473,15.29579 -4.170435,17.5108 -3.424027,1.30181 -7.527084,4.79896 -9.117909,7.77144 -3.84733,7.18881 -3.67758,20.24695 0.315114,24.23964 2.458949,2.45895 2.216042,4.33616 -1.040805,8.04354 -2.336579,2.65981 -5.095749,7.61598 -6.131479,11.01374 -2.36062,7.74412 2.86264,24.17212 8.35568,26.28001 3.665965,1.40675 3.651231,2.26319 -0.131887,7.66436 -6.324023,9.0288 -5.292313,20.44158 2.557525,28.29142 3.749108,3.74911 6.816561,9.78043 6.816561,13.40297 0,3.62251 2.234728,8.78142 4.966058,11.4642 2.731334,2.68281 7.2106,11.01273 9.953925,18.51095 5.472922,14.95892 21.513041,32.37065 32.319141,35.0828 3.77962,0.94864 10.61766,5.4704 15.19566,10.0484 7.32645,7.32644 10.04655,8.27735 22.70531,7.93731 7.90994,-0.2124 18.40748,1.23364 23.32787,3.21355 7.56525,3.04416 10.72185,2.96708 20.44969,-0.49925 6.42163,-2.28832 15.11711,-3.38947 19.68338,-2.49282 4.49893,0.88343 13.3235,0.13225 19.61016,-1.66953 14.79112,-4.23898 16.58066,-2.95062 44.95367,32.36364 12.28797,15.29413 28.42329,34.925 35.85626,43.62416 z"
     style="fill:#ffffff;stroke-width:2.72662449"
     inkscape:connector-curvature="0" />
  <metadata>
    <rdf:RDF>
      <cc:Work
         rdf:about="">
        <dc:title></dc:title>
      </cc:Work>
    </rdf:RDF>
  </metadata>
</svg>
